<svg id="euactrf395kd1" xmlns="http://www.w3.org/2000/svg" xmlns:xlink="http://www.w3.org/1999/xlink" viewBox="0 0 1920 512" shape-rendering="geometricPrecision" text-rendering="geometricPrecision"><style><![CDATA[#euactrf395kd23 {animation: euactrf395kd23_c_o 10000ms linear infinite normal forwards}@keyframes euactrf395kd23_c_o { 0% {opacity: 1} 97% {opacity: 1} 98% {opacity: 0} 100% {opacity: 0} }#euactrf395kd29 {animation: euactrf395kd29_c_o 10000ms linear infinite normal forwards}@keyframes euactrf395kd29_c_o { 0% {opacity: 0} 97% {opacity: 0} 98% {opacity: 1} 100% {opacity: 1} }]]></style><g id="euactrf395kd2"><rect id="euactrf395kd3" width="1920" height="512" rx="0" ry="0" fill="rgb(140,199,63)" stroke="none" stroke-width="1"/><g id="euactrf395kd4"><path id="euactrf395kd5" d="M922.800000,268.500000L922.800000,167.900000L944.100000,167.900000C952.400000,167.900000,958.600000,170.200000,963,174.700000C967.300000,179.200000,969.400000,185.600000,969.400000,193.900000L969.400000,240.900000C969.400000,250.300000,967.100000,257.300000,962.500000,261.700000C957.900000,266.200000,951.400000,268.400000,942.800000,268.400000L922.800000,268.500000ZM937.200000,181.500000L937.200000,254.900000L943.800000,254.900000C947.800000,254.900000,950.700000,253.900000,952.400000,251.900000C954.100000,249.900000,954.900000,246.700000,954.900000,242.400000L954.900000,194C954.900000,190,954.100000,187,952.500000,184.800000C950.900000,182.600000,948,181.600000,943.700000,181.600000L937.200000,181.600000Z" fill="rgb(255,255,255)" stroke="none" stroke-width="1"/><path id="euactrf395kd6" d="M982.900000,268.500000L982.900000,167.900000L1006.100000,167.900000C1023,167.900000,1031.500000,177.700000,1031.500000,197.400000C1031.500000,203.300000,1030.600000,208.400000,1028.700000,212.500000C1026.900000,216.600000,1023.600000,220,1019,222.500000L1034.500000,268.400000L1019.300000,268.400000L1005.900000,225.500000L997.300000,225.500000L997.300000,268.400000L982.900000,268.500000ZM997.300000,181.500000L997.300000,212.800000L1005.500000,212.800000C1007.600000,212.900000,1009.600000,212.500000,1011.600000,211.700000C1013,211,1014.300000,210,1015.100000,208.700000C1015.900000,207.200000,1016.400000,205.500000,1016.600000,203.800000C1016.900000,201.600000,1017,199.300000,1017,197.100000C1017,194.900000,1016.900000,192.600000,1016.600000,190.400000C1016.400000,188.600000,1015.800000,186.900000,1014.900000,185.400000C1013.100000,182.800000,1009.700000,181.400000,1004.700000,181.400000L997.300000,181.400000Z" fill="rgb(255,255,255)" stroke="none" stroke-width="1"/><path id="euactrf395kd7" d="M1042.200000,191.600000C1042.100000,187.900000,1042.800000,184.300000,1044.300000,180.900000C1045.600000,177.900000,1047.500000,175.300000,1050,173.100000C1052.300000,171.100000,1054.900000,169.600000,1057.700000,168.600000C1066.300000,165.500000,1075.900000,167.200000,1082.900000,173.100000C1085.200000,175.300000,1087.100000,177.900000,1088.400000,180.900000C1089.900000,184.300000,1090.600000,187.900000,1090.500000,191.600000L1090.500000,244.700000C1090.500000,248.900000,1089.800000,252.600000,1088.400000,255.600000C1087.100000,258.500000,1085.200000,261,1082.900000,263.100000C1080.600000,265.100000,1077.900000,266.700000,1075.100000,267.800000C1069.500000,269.900000,1063.300000,269.900000,1057.700000,267.800000C1054.800000,266.800000,1052.200000,265.200000,1050,263.100000C1047.600000,261.100000,1045.700000,258.500000,1044.300000,255.600000C1042.900000,252.600000,1042.200000,249,1042.200000,244.700000L1042.200000,191.600000ZM1056.600000,244.700000C1056.600000,248.200000,1057.600000,250.700000,1059.500000,252.400000C1063.500000,255.700000,1069.200000,255.700000,1073.200000,252.400000C1075.100000,250.700000,1076.100000,248.200000,1076.100000,244.700000L1076.100000,191.600000C1076.100000,188.100000,1075.100000,185.600000,1073.200000,183.900000C1069.200000,180.600000,1063.500000,180.600000,1059.500000,183.900000C1057.600000,185.600000,1056.600000,188.100000,1056.600000,191.600000L1056.600000,244.700000Z" fill="rgb(255,255,255)" stroke="none" stroke-width="1"/><path id="euactrf395kd8" d="M1102.400000,191.600000C1102.300000,187.900000,1103.100000,184.200000,1104.500000,180.900000C1105.800000,177.900000,1107.700000,175.300000,1110.100000,173.100000C1112.400000,171.100000,1115,169.600000,1117.800000,168.600000C1126.400000,165.500000,1136,167.200000,1143,173.100000C1145.300000,175.300000,1147.200000,177.900000,1148.500000,180.900000C1150,184.300000,1150.700000,187.900000,1150.600000,191.600000L1150.600000,196.700000L1136.200000,196.700000L1136.200000,191.600000C1136.200000,188.100000,1135.200000,185.600000,1133.300000,183.900000C1129.300000,180.600000,1123.600000,180.600000,1119.600000,183.900000C1117.700000,185.600000,1116.700000,188.100000,1116.700000,191.600000L1116.700000,244.700000C1116.700000,248.200000,1117.700000,250.700000,1119.600000,252.400000C1123.600000,255.700000,1129.300000,255.700000,1133.300000,252.400000C1135.200000,250.700000,1136.200000,248.200000,1136.200000,244.700000L1136.200000,225.800000L1124.800000,225.800000L1124.800000,213.100000L1150.600000,213.100000L1150.600000,244.700000C1150.600000,248.900000,1149.900000,252.600000,1148.500000,255.600000C1147.200000,258.500000,1145.300000,261,1143,263.100000C1140.700000,265.100000,1138,266.700000,1135.200000,267.800000C1129.600000,269.900000,1123.400000,269.900000,1117.800000,267.800000C1114.900000,266.800000,1112.300000,265.200000,1110.100000,263.100000C1107.700000,261.100000,1105.800000,258.500000,1104.500000,255.600000C1103.100000,252.600000,1102.400000,249,1102.400000,244.700000L1102.400000,191.600000Z" fill="rgb(255,255,255)" stroke="none" stroke-width="1"/><path id="euactrf395kd9" d="M1210,167.900000L1210,245.800000C1210.100000,252,1207.600000,258,1203.200000,262.300000C1201.100000,264.500000,1198.500000,266.200000,1195.700000,267.400000C1192.800000,268.600000,1189.800000,269.300000,1186.700000,269.300000C1183.600000,269.300000,1180.600000,268.700000,1177.700000,267.400000C1172.100000,264.900000,1167.700000,260.500000,1165.200000,254.900000C1163.900000,252,1163.300000,248.900000,1163.300000,245.800000L1163.300000,167.900000L1177.700000,167.900000L1177.700000,244.400000C1177.700000,248,1178.500000,250.600000,1180.200000,252.300000C1183.800000,255.700000,1189.400000,255.700000,1192.900000,252.300000C1194.600000,250.600000,1195.400000,248,1195.400000,244.400000L1195.400000,167.900000L1210,167.900000Z" fill="rgb(255,255,255)" stroke="none" stroke-width="1"/><path id="euactrf395kd10" d="M1223.600000,268.500000L1223.600000,167.900000L1266.600000,167.900000L1266.600000,181.400000L1238,181.400000L1238,211L1262.800000,211L1262.800000,224.600000L1237.900000,224.600000L1237.900000,254.100000L1266.400000,254.100000L1266.400000,268.500000L1223.600000,268.500000Z" fill="rgb(255,255,255)" stroke="none" stroke-width="1"/><path id="euactrf395kd11" d="M1302.500000,268.500000L1302.500000,167.900000L1316.900000,167.900000L1316.900000,268.400000L1302.500000,268.400000Z" fill="rgb(255,255,255)" stroke="none" stroke-width="1"/><path id="euactrf395kd12" d="M1328.800000,220.900000C1328.800000,218.200000,1329,215.500000,1329.400000,212.800000C1330.200000,206.900000,1333.700000,201.800000,1338.800000,198.800000C1342,196.900000,1345.800000,196,1350.300000,196C1354.800000,196,1358.700000,196.900000,1361.800000,198.800000C1366.900000,201.800000,1370.400000,206.900000,1371.200000,212.800000C1371.600000,215.500000,1371.800000,218.200000,1371.800000,220.900000L1371.800000,244.500000C1371.800000,247.200000,1371.600000,249.900000,1371.200000,252.600000C1370.400000,258.500000,1366.900000,263.600000,1361.800000,266.600000C1358.600000,268.500000,1354.800000,269.400000,1350.300000,269.400000C1345.800000,269.400000,1341.900000,268.500000,1338.800000,266.600000C1333.700000,263.600000,1330.200000,258.500000,1329.400000,252.600000C1329,249.900000,1328.800000,247.200000,1328.800000,244.500000L1328.800000,220.900000ZM1343.200000,246.700000C1343.200000,249.400000,1343.800000,251.500000,1345.100000,252.800000C1348,255.500000,1352.500000,255.500000,1355.400000,252.800000C1356.700000,251.400000,1357.300000,249.400000,1357.300000,246.700000L1357.300000,218.600000C1357.300000,215.900000,1356.700000,213.800000,1355.400000,212.500000C1352.500000,209.800000,1348,209.800000,1345.100000,212.500000C1343.800000,213.900000,1343.200000,215.900000,1343.200000,218.600000L1343.200000,246.700000Z" fill="rgb(255,255,255)" stroke="none" stroke-width="1"/><path id="euactrf395kd13" d="M1389.800000,268.500000L1389.800000,181.500000L1373.100000,181.500000L1373.100000,168L1420.800000,168L1420.800000,181.500000L1404.100000,181.500000L1404.100000,268.500000L1389.800000,268.500000Z" fill="rgb(255,255,255)" stroke="none" stroke-width="1"/></g><g id="euactrf395kd14"><path id="euactrf395kd15" d="M230.600000,512L253.800000,512C246,507.300000,238.200000,502.600000,230.600000,497.900000C230.700000,502.600000,230.700000,507.300000,230.600000,512Z" fill="rgb(255,255,255)" stroke="none" stroke-width="1"/><path id="euactrf395kd16" d="M656.800000,338.500000C650,339,642.900000,339.600000,635.500000,340.500000C615.200000,342.600000,595.100000,346,575.200000,350.500000C567.900000,352.100000,560.800000,353.900000,554,355.900000C547.200000,357.800000,540.600000,359.900000,534.300000,362.100000C430.300000,398.200000,395.400000,464.700000,384.100000,512.100000L840.400000,512.100000C840.200000,510.500000,840.100000,508.800000,839.900000,507.200000C833.300000,436.700000,837.400000,338.400000,685.900000,337.700000C676.800000,337.500000,667.100000,337.800000,656.800000,338.500000Z" fill="rgb(255,255,255)" stroke="none" stroke-width="1"/></g><path id="euactrf395kd17" d="M201.200000,0C208.400000,52.700000,214.300000,107.600000,218.900000,164.800000C279.500000,103.200000,368.400000,35.500000,487.700000,0L201.200000,0Z" fill="rgb(237,28,36)" stroke="none" stroke-width="1"/><path id="euactrf395kd18" d="M218.900000,164.800000C227.200000,268.600000,231.200000,379.600000,230.700000,497.900000C238.300000,502.600000,246,507.300000,253.800000,512L384,512C395.300000,464.600000,430.300000,398.100000,534.300000,362.100000C540.600000,359.900000,547.100000,357.800000,554,355.900000C560.800000,354,567.900000,352.100000,575.200000,350.400000C595.100000,345.900000,615.300000,342.500000,635.500000,340.400000C642.900000,339.600000,650,338.900000,656.800000,338.400000C667,337.700000,676.700000,337.400000,685.800000,337.400000C837.400000,338.100000,833.200000,436.500000,839.700000,507C839.900000,508.700000,840,510.300000,840.200000,512L941.300000,512C937.300000,489,895.900000,243.600000,858.900000,96.600000C850.800000,64.200000,834.300000,16,828.800000,0L487.800000,0C368.400000,35.500000,279.500000,103.200000,218.900000,164.800000Z" fill="rgb(255,217,0)" stroke="none" stroke-width="1"/><path id="euactrf395kd19" d="M187.700000,470.200000C181.500000,466.100000,175.600000,462.100000,170.200000,458.400000C170.200000,458.400000,169.900000,479.200000,169.300000,512L230.700000,512C230.700000,507.300000,230.700000,502.600000,230.800000,497.900000C220.400000,491.400000,210.200000,484.900000,200.700000,478.700000C196.100000,475.800000,191.800000,472.900000,187.700000,470.200000Z" fill="rgb(212,234,252)" stroke="none" stroke-width="1"/><path id="euactrf395kd20" d="M162.600000,229.400000C180,206.800000,198.800000,185.200000,218.900000,164.800000C214.300000,107.600000,208.400000,52.700000,201.100000,0L139.700000,0C149.400000,68.900000,157.300000,145.200000,162.600000,229.400000Z" fill="rgb(204,27,40)" stroke="none" stroke-width="1"/><path id="euactrf395kd21" d="M218.900000,164.800000C198.900000,185.200000,180.100000,206.800000,162.600000,229.500000C167.100000,300.200000,170.200000,458.400000,170.200000,458.400000C175.700000,462.100000,181.600000,466.100000,187.800000,470.200000C192,473,196.300000,475.800000,200.700000,478.700000C210.300000,484.900000,220.400000,491.400000,230.800000,497.900000C231.200000,379.700000,227.200000,268.600000,218.900000,164.800000Z" fill="rgb(229,193,14)" stroke="none" stroke-width="1"/><path id="euactrf395kd22" d="M575.300000,352.400000C563.600000,352.300000,554.100000,342.800000,554.200000,331.100000C554.200000,320.900000,561.600000,312.100000,571.700000,310.300000C583.200000,308.500000,594.800000,307.300000,606.400000,306.700000C656.600000,303.400000,682.800000,299.100000,683.700000,245.200000C684,225.900000,677,218.300000,671.700000,214.200000C647.700000,195.900000,591.800000,206.300000,574.100000,211.400000C562.800000,214.700000,551.100000,208.200000,547.800000,196.900000C544.500000,185.600000,551,173.900000,562.300000,170.600000C578,166.300000,594.100000,163.500000,610.300000,162.100000C648,158.900000,677.200000,165.100000,697.400000,180.500000C710.800000,190.700000,726.700000,210.400000,726.100000,245.900000C724.600000,341.500000,655.100000,346.100000,609.100000,349.100000C599,349.600000,589,350.600000,579.100000,352.100000C577.900000,352.300000,576.600000,352.400000,575.300000,352.400000Z" fill="rgb(229,193,14)" stroke="none" stroke-width="1"/></g><g id="euactrf395kd23"><g id="euactrf395kd24"><circle id="euactrf395kd25" r="52.700000" transform="matrix(1 0 0 1 425.50000000000000 177.19999999999999)" fill="rgb(93,94,97)" stroke="none" stroke-width="1"/><circle id="euactrf395kd26" r="15.300000" transform="matrix(1 0 0 1 394.30000000000001 159.09999999999999)" fill="rgb(255,255,255)" stroke="none" stroke-width="1"/><circle id="euactrf395kd27" r="52.700000" transform="matrix(1 0 0 1 736.39999999999998 113.30000000000000)" fill="rgb(93,94,97)" stroke="none" stroke-width="1"/><circle id="euactrf395kd28" r="15.300000" transform="matrix(1 0 0 1 705.20000000000005 95.09999999999999)" fill="rgb(255,255,255)" stroke="none" stroke-width="1"/></g></g><g id="euactrf395kd29" opacity="0"><path id="euactrf395kd30" d="M386.200000,197.600000C390.300000,199.300000,394.800000,199.800000,399.200000,199.200000C405.900000,198,412.300000,195.200000,418.700000,192.900000C421.700000,191.800000,424.500000,189.800000,427.600000,189.300000C442,187,456.400000,185.100000,470.900000,183.400000C476.100000,182.800000,481.600000,181.400000,482.200000,176.100000C482.500000,171.400000,481.100000,166.700000,478.200000,163C472,155.500000,462.800000,153,452.400000,151.700000C429.700000,156.400000,406.200000,160.900000,384.100000,170.500000C378.200000,172.800000,374.300000,178.600000,374.500000,185C375,191.800000,380.500000,195.500000,386.200000,197.600000Z" fill="rgb(227,191,33)" stroke="none" stroke-width="1"/><path id="euactrf395kd31" d="M296.300000,169.800000C298.100000,171.700000,300.400000,173.200000,303,174C307,175,311.100000,175.100000,315.300000,175.500000C317.200000,175.700000,319.200000,175.300000,321,175.800000C329.400000,178.200000,337.800000,180.800000,346.100000,183.500000C349.100000,184.500000,352.400000,185.100000,354.100000,182.400000C355.500000,179.900000,355.900000,177,355.300000,174.200000C353.800000,168.500000,349.400000,164.800000,344.100000,161.500000C330.500000,158.400000,316.500000,154.900000,302.100000,154.500000C298.300000,154.300000,294.700000,156.500000,293.200000,160C291.600000,163.900000,293.700000,167.200000,296.300000,169.800000Z" fill="rgb(227,191,33)" stroke="none" stroke-width="1"/><path id="euactrf395kd32" d="M294.300000,214.900000C296.700000,216,299.400000,216.400000,302.100000,216.100000C306.100000,215.500000,310,213.900000,314,212.600000C315.800000,212,317.500000,210.800000,319.400000,210.600000C328.100000,209.500000,336.800000,208.500000,345.500000,207.800000C348.600000,207.500000,351.900000,206.800000,352.400000,203.600000C352.700000,200.800000,351.900000,197.900000,350.200000,195.600000C346.600000,191,341.100000,189.300000,334.900000,188.400000C321.200000,190.800000,306.900000,193.200000,293.500000,198.500000C289.900000,199.800000,287.500000,203.200000,287.500000,207C287.600000,211.300000,290.900000,213.600000,294.300000,214.900000Z" fill="rgb(227,191,33)" stroke="none" stroke-width="1"/><path id="euactrf395kd33" d="M311.400000,250.200000C314,253.100000,318,254,321.600000,252.500000C335.200000,247.400000,347.300000,239.600000,359.100000,232.200000C363.100000,227.400000,366,222.400000,365.600000,216.600000C365.300000,213.800000,364,211.200000,361.800000,209.200000C359.300000,207.100000,356.400000,208.800000,353.900000,210.700000C346.900000,216,339.800000,221.100000,332.600000,226.200000C331.100000,227.300000,329,227.500000,327.300000,228.300000C323.500000,230,319.600000,231.500000,316.200000,233.700000C314,235.300000,312.300000,237.400000,311.200000,239.800000C309.500000,243.200000,308.700000,247.100000,311.400000,250.200000Z" fill="rgb(227,191,33)" stroke="none" stroke-width="1"/><path id="euactrf395kd34" d="M834.900000,63.700000C833.400000,61.800000,830.800000,61,828.400000,61.800000C819.500000,64.500000,811.300000,69,803.400000,73.300000C800.600000,76.300000,798.500000,79.300000,798.600000,83.100000C798.700000,84.900000,799.400000,86.700000,800.700000,88C802.200000,89.400000,804.200000,88.500000,805.900000,87.300000C810.600000,84.200000,815.400000,81.200000,820.200000,78.200000C821.200000,77.600000,822.600000,77.500000,823.700000,77C826.200000,76.100000,828.800000,75.300000,831.100000,74C832.600000,73.100000,833.700000,71.800000,834.600000,70.300000C835.800000,68.300000,836.500000,65.800000,834.900000,63.700000Z" fill="rgb(227,191,33)" stroke="none" stroke-width="1"/><path id="euactrf395kd35" d="M846.400000,92C845.800000,89.600000,843.700000,87.900000,841.200000,87.700000C831.900000,86.600000,822.700000,87.600000,813.700000,88.500000C810,90.100000,806.900000,92.100000,805.400000,95.600000C804.800000,97.300000,804.800000,99.200000,805.400000,100.900000C806.200000,102.800000,808.400000,102.700000,810.400000,102.300000C816,101.300000,821.500000,100.400000,827.100000,99.600000C828.300000,99.400000,829.600000,99.900000,830.800000,99.900000C833.500000,100.100000,836.200000,100.300000,838.800000,100C840.500000,99.700000,842.100000,99,843.400000,97.900000C845.500000,96.600000,847.100000,94.700000,846.400000,92Z" fill="rgb(227,191,33)" stroke="none" stroke-width="1"/><path id="euactrf395kd36" d="M837.300000,116.500000C836.200000,115.200000,834.800000,114.100000,833.200000,113.500000C830.700000,112.700000,828,112.400000,825.400000,112C824.200000,111.800000,822.800000,112,821.700000,111.600000C816.400000,109.700000,811.100000,107.700000,805.800000,105.600000C803.900000,104.900000,801.800000,104.300000,800.600000,106C799.600000,107.500000,799.200000,109.400000,799.500000,111.200000C800.200000,114.900000,802.900000,117.500000,806.200000,119.800000C814.800000,122.400000,823.700000,125.200000,833,126C835.500000,126.300000,837.800000,125,838.900000,122.800000C840.100000,120.500000,838.900000,118.300000,837.300000,116.500000Z" fill="rgb(227,191,33)" stroke="none" stroke-width="1"/><path id="euactrf395kd37" d="M695.900000,134.700000C700,136.400000,704.500000,136.900000,708.900000,136.300000C715.600000,135.100000,722,132.300000,728.400000,130C731.400000,128.900000,734.200000,126.900000,737.300000,126.400000C751.700000,124.100000,766.100000,122.200000,780.600000,120.500000C785.800000,119.900000,791.300000,118.500000,791.900000,113.200000C792.200000,108.500000,790.800000,103.800000,787.900000,100.100000C781.700000,92.600000,772.500000,90.100000,762.100000,88.800000C739.400000,93.500000,715.900000,98,693.800000,107.600000C687.900000,109.900000,684,115.700000,684.200000,122.100000C684.700000,129,690.100000,132.600000,695.900000,134.700000Z" fill="rgb(227,191,33)" stroke="none" stroke-width="1"/></g></svg>