<?xml version="1.0" encoding="UTF-8" standalone="no"?>
<svg
   class="ionicon"
   viewBox="0 0 512 512"
   version="1.1"
   id="svg256"
   sodipodi:docname="rocket-outline.svg"
   inkscape:version="1.2 (dc2aedaf03, 2022-05-15)"
   xmlns:inkscape="http://www.inkscape.org/namespaces/inkscape"
   xmlns:sodipodi="http://sodipodi.sourceforge.net/DTD/sodipodi-0.dtd"
   xmlns="http://www.w3.org/2000/svg"
   xmlns:svg="http://www.w3.org/2000/svg">
  <defs
     id="defs260" />
  <sodipodi:namedview
     id="namedview258"
     pagecolor="#ffffff"
     bordercolor="#666666"
     borderopacity="1.0"
     inkscape:showpageshadow="2"
     inkscape:pageopacity="0.0"
     inkscape:pagecheckerboard="0"
     inkscape:deskcolor="#d1d1d1"
     showgrid="false"
     inkscape:zoom="2.0058594"
     inkscape:cx="154.54722"
     inkscape:cy="256.49854"
     inkscape:window-width="2160"
     inkscape:window-height="3803"
     inkscape:window-x="0"
     inkscape:window-y="0"
     inkscape:window-maximized="1"
     inkscape:current-layer="svg256" />
  <title
     id="title250">Rocket</title>
  <path
     d="M461.81 53.81a4.4 4.4 0 00-3.3-3.39c-54.38-13.3-180 34.09-248.13 102.17a294.9 294.9 0 00-33.09 39.08c-21-1.9-42-.3-59.88 7.5-50.49 22.2-65.18 80.18-69.28 105.07a9 9 0 009.8 10.4l81.07-8.9a180.29 180.29 0 001.1 18.3 18.15 18.15 0 005.3 11.09l31.39 31.39a18.15 18.15 0 0011.1 5.3 179.91 179.91 0 0018.19 1.1l-8.89 81a9 9 0 0010.39 9.79c24.9-4 83-18.69 105.07-69.17 7.8-17.9 9.4-38.79 7.6-59.69a293.91 293.91 0 0039.19-33.09c68.38-68 115.47-190.86 102.37-247.95zM298.66 213.67a42.7 42.7 0 1160.38 0 42.65 42.65 0 01-60.38 0z"
     fill="none"
     stroke="currentColor"
     stroke-linecap="round"
     stroke-linejoin="round"
     stroke-width="32"
     id="path252"
     style="fill:none;fill-opacity:1;stroke:#fffbe5;stroke-opacity:1" />
  <path
     d="M109.64 352a45.06 45.06 0 00-26.35 12.84C65.67 382.52 64 448 64 448s65.52-1.67 83.15-19.31A44.73 44.73 0 00160 402.32"
     fill="none"
     stroke="currentColor"
     stroke-linecap="round"
     stroke-linejoin="round"
     stroke-width="32"
     id="path254"
     style="stroke:#fffbe5;stroke-opacity:1" />
</svg>
